<svg xmlns="http://www.w3.org/2000/svg" width="16" height="17" viewBox="0 0 16 17">
  <metadata><?xpacket begin="﻿" id="W5M0MpCehiHzreSzNTczkc9d"?>
<x:xmpmeta xmlns:x="adobe:ns:meta/" x:xmptk="Adobe XMP Core 5.6-c138 79.159824, 2016/09/14-01:09:01        ">
   <rdf:RDF xmlns:rdf="http://www.w3.org/1999/02/22-rdf-syntax-ns#">
      <rdf:Description rdf:about=""/>
   </rdf:RDF>
</x:xmpmeta>
<?xpacket end="w"?></metadata>
<defs>
    <style>
      .cls-1 {
        fill: #fff;
        fill-rule: evenodd;
      }
    </style>
  </defs>
  <path id="Forma_1" data-name="Forma 1" class="cls-1" d="M548.736,449.344l-2.691-2.968a7.6,7.6,0,0,0,1.733-4.842,7.392,7.392,0,1,0-7.39,7.532,7.22,7.22,0,0,0,4.234-1.363l2.724,3a0.951,0.951,0,0,0,1.363.026A1,1,0,0,0,548.736,449.344Zm-8.348-13.378a5.568,5.568,0,1,1-5.463,5.568A5.523,5.523,0,0,1,540.388,435.966Z" transform="translate(-533 -434)"/>
</svg>
